<svg width="21" height="24" viewBox="0 0 21 24" fill="none" xmlns="http://www.w3.org/2000/svg">
<path d="M19.1325 16.9625C18.3445 16.025 16.1048 14.2687 14.6368 14.2687C14.2968 14.2687 13.9999 14.3563 13.7571 14.5375C13.0393 15.0688 12.4672 15.4812 12.1919 15.4812C12.0408 15.4812 11.8789 15.325 11.5227 14.9688L11.4633 14.9062C10.4757 13.9125 10.2652 13.6563 9.88202 13.1938L9.78487 13.075C9.71471 12.9937 9.65534 12.9188 9.59598 12.85C9.26136 12.45 9.0185 12.1625 8.16037 11.0375L8.12259 10.9875C7.71242 10.45 7.44257 10.1 7.42638 9.84375C7.41018 9.59375 7.59908 9.1875 8.07942 8.43125C8.66229 7.51875 8.68388 6.39375 8.14958 5.0875C7.72321 4.05625 7.027 3.06875 6.41174 2.2L6.35777 2.125C5.82886 1.375 5.2136 1 4.52818 1C3.7672 1 3.13575 1.475 2.80113 1.725C2.77415 1.74375 2.74716 1.76875 2.72018 1.7875C1.96999 2.3375 1.42489 3.09375 1.21981 3.8625C0.912177 5.01875 0.70709 6.51875 2.18048 9.6375C3.45417 12.3375 4.60913 14.15 6.44412 16.3312C8.17116 18.3812 8.93754 19.0437 10.6538 20.4812C12.5643 22.0812 14.3993 23 15.6838 23C16.8766 23 17.8156 23 19.1541 21.1313C20.5573 19.1688 19.9744 17.9687 19.1325 16.9625ZM18.5118 20.4562C17.4324 21.9687 16.8118 21.9688 15.6892 21.9688C14.5936 21.9688 12.8936 21.0937 11.1449 19.6375C9.47185 18.2375 8.72706 17.5938 7.04858 15.6C5.27297 13.4938 4.15578 11.7375 2.92526 9.13125C1.62458 6.375 1.7703 5.16875 2.03476 4.175C2.17508 3.64375 2.59605 3.075 3.16813 2.6625C3.19511 2.64375 3.2221 2.61875 3.25448 2.6C3.54052 2.3875 4.01546 2.03125 4.53357 2.03125C4.96534 2.03125 5.34852 2.28125 5.71552 2.8L5.76949 2.875C7.14573 4.825 8.21974 6.55 7.41018 7.825C6.8381 8.71875 6.53587 9.325 6.58444 9.95C6.62762 10.5563 6.97842 11.0125 7.50733 11.7L7.54511 11.75C8.41403 12.8875 8.66229 13.1875 9.0077 13.5938C9.06707 13.6625 9.12644 13.7375 9.1966 13.8188L9.29374 13.9375C9.69312 14.4187 9.9144 14.6812 10.929 15.7125L10.9884 15.775C11.4202 16.2125 11.7386 16.5312 12.2027 16.5312C12.6831 16.5312 13.212 16.1812 14.2158 15.4375C14.3184 15.3625 14.4641 15.3188 14.6476 15.3188C15.8187 15.3188 17.8372 16.8687 18.5442 17.7125C19.1919 18.475 19.5157 19.05 18.5118 20.4562Z" fill="#545761" stroke="#545761"/>
</svg>
